<?xml version="1.0" standalone="no"?>
<!DOCTYPE svg PUBLIC "-//W3C//DTD SVG 20010904//EN"
 "http://www.w3.org/TR/2001/REC-SVG-20010904/DTD/svg10.dtd">
<svg version="1.0" xmlns="http://www.w3.org/2000/svg"
 width="16.000000pt" height="16.000000pt" viewBox="0 0 16.000000 16.000000"
 preserveAspectRatio="xMidYMid meet">

<g transform="translate(0.000000,16.000000) scale(0.100000,-0.100000)"
fill="#000000" stroke="none">
<path d="M108 98 c-2 -16 -9 -22 -20 -20 -22 4 -23 -8 -3 -34 13 -17 14 -17
15 -1 0 16 10 21 38 18 6 -1 13 3 14 9 4 28 2 35 -7 35 -5 0 -15 4 -22 8 -7 5
-13 -1 -15 -15z"/>
<path d="M27 81 c-3 -13 -1 -18 9 -14 7 2 10 11 7 19 -7 19 -10 18 -16 -5z"/>
</g>
</svg>
